<svg xmlns="http://www.w3.org/2000/svg" width="22" height="22" viewBox="0 0 22 22"><path d="M15.9087 0.6875H6.09125C4.62756 0.6875 3.4375 1.87756 3.4375 3.34125V18.6587C3.4375 20.1224 4.62756 21.3125 6.09125 21.3125H15.9087C17.3717 21.3125 18.5625 20.1224 18.5625 18.6587V3.34125C18.5625 1.87756 17.3724 0.6875 15.9087 0.6875ZM13.2694 2.0625L12.8879 2.75H9.1135L8.73194 2.0625H13.2694ZM17.1875 18.6587C17.1875 19.3634 16.6141 19.9375 15.9087 19.9375H6.09125C5.38587 19.9375 4.8125 19.3641 4.8125 18.6587V3.34125C4.8125 2.63588 5.38587 2.0625 6.09125 2.0625H7.15825L8.107 3.77094C8.22869 3.98956 8.45831 4.125 8.70856 4.125H13.2921C13.5417 4.125 13.772 3.98956 13.8937 3.77094L14.8417 2.0625H15.9087C16.6141 2.0625 17.1875 2.63588 17.1875 3.34125V18.6587Z"></path><path d="M11.6875 18.5625H10.3125C9.933 18.5625 9.625 18.2545 9.625 17.875C9.625 17.4955 9.933 17.1875 10.3125 17.1875H11.6875C12.067 17.1875 12.375 17.4955 12.375 17.875C12.375 18.2545 12.067 18.5625 11.6875 18.5625Z"></path></svg>