<svg xmlns="http://www.w3.org/2000/svg" width="300" height="300" viewBox="0 0 300 300"><path d="M292.9353515625 159.0919921875V232.0095703125L175.1736328125 300L133.0623046875 275.687109375V251.8845703125L112.2322265625 263.9109375L70.1208984375 239.5974609375V216.13828125L49.1765625 228.2302734375L7.065234375 203.916796875V67.9880859375L124.8240234375 0L166.9382812499999 24.253125V47.771484375L187.8796875 35.6806640625L229.9939453125 59.9337890625V83.7943359375L250.82109375 71.7697265625L292.9353515625 96.0228515625V150.087890625H284.1345703125V101.110546875L255.2244140625 84.460546875V205.156640625L284.1345703125 221.84765625V159.0919921875zM279.7341796875 229.46953125L250.8240234375 212.778515625L146.2623046875 273.146484375L175.173046875 289.8380859375zM216.7927734375 193.38046875L187.8826171875 176.689453125L83.321484375 237.0568359375L112.231640625 253.7484375zM15.8654296875 193.7548828125L59.7919921875 168.3943359375L64.1923828125 176.0162109375L20.2658203125 201.3767578125001L49.1759765625 218.068359375L153.737109375 157.6998046875L124.826953125 141.0087890625L72.9931640625 170.934375L68.5927734375 163.3125L120.4265625 133.3869140625001V12.70078125L15.8654296875 73.0693359375zM129.2267578125 12.69140625V133.3869140625001L158.1369140625 150.0779296875V29.3408203125zM78.92109375 211.05703125V229.435546875L183.4822265625 169.067578125V48.3814453125L166.93828125 57.9333984375V160.2404296875001zM192.2830078125 48.371484375V169.067578125L221.1931640625 185.75859375V65.021484375zM141.8625 246.8033203125V265.524609375L246.4236328125 205.156640625V84.4705078125L229.9939453125 93.9568359375V195.92109375zM24.6357421875 158.888671875H33.4365234375V150.087890625H24.6357421875zM42.6111328125 158.888671875H51.4119140625V150.087890625H42.6111328125z"></path></svg>